<?xml version="1.0" encoding="UTF-8"?>
<svg width="42" height="39" version="1.1" xmlns="http://www.w3.org/2000/svg"><rect width="42" height="39" rx="1.2811" fill="#495057" stroke-width=".496"/><path d="m12.467 24.833c0-0.59 0.47766-1.0667 1.0667-1.0667h1.822c0.41134-0.94333 1.3513-1.6 2.4447-1.6 1.0933 0 2.0033 0.65667 2.4433 1.6h8.2233c0.59 0 1.0667 0.47667 1.0667 1.0667s-0.47666 1.0667-1.0667 1.0667h-8.2233c-0.44 0.94334-1.35 1.6-2.4433 1.6-1.0933 0-2.0333-0.65666-2.4447-1.6h-1.822c-0.589 0-1.0667-0.47666-1.0667-1.0667zm6.4 0c0-0.59-0.47666-1.0667-1.0667-1.0667s-1.0667 0.47667-1.0667 1.0667 0.47667 1.0667 1.0667 1.0667 1.0667-0.47666 1.0667-1.0667zm5.3333-8c1.0933 0 2.0033 0.65666 2.4433 1.6h1.8233c0.59 0 1.0667 0.47666 1.0667 1.0667s-0.47666 1.0667-1.0667 1.0667h-1.8233c-0.44 0.94334-1.35 1.6-2.4433 1.6-1.0933 0-2.0333-0.65666-2.4433-1.6h-8.2233c-0.589 0-1.0667-0.47666-1.0667-1.0667s0.47766-1.0667 1.0667-1.0667h8.2233c0.41-0.94334 1.35-1.6 2.4433-1.6zm1.0667 2.6667c0-0.59-0.47666-1.0667-1.0667-1.0667s-1.0667 0.47666-1.0667 1.0667 0.47667 1.0667 1.0667 1.0667 1.0667-0.47666 1.0667-1.0667zm3.2-6.4c0.59 0 1.0667 0.47766 1.0667 1.0667 0 0.59-0.47666 1.0667-1.0667 1.0667h-7.1567c-0.44 0.94333-1.35 1.6-2.4433 1.6s-2.0333-0.65667-2.4433-1.6h-2.89c-0.589 0-1.0667-0.47667-1.0667-1.0667 0-0.589 0.47766-1.0667 1.0667-1.0667h2.89c0.41-0.94166 1.35-1.6 2.4433-1.6s2.0033 0.65834 2.4433 1.6zm-10.667 1.0667c0 0.59 0.47666 1.0667 1.0667 1.0667s1.0667-0.47667 1.0667-1.0667c0-0.589-0.47666-1.0667-1.0667-1.0667s-1.0667 0.47766-1.0667 1.0667z" fill="#fff" stroke-width=".033333"/></svg>
