<?xml version="1.0" encoding="UTF-8"?>
<svg width="42" height="39" version="1.1" xmlns="http://www.w3.org/2000/svg"><rect width="42" height="39" rx="1.2811" fill="#495057" stroke-width=".496"/><path d="m14.231 11.5c0.51154 0 0.92308 0.41346 0.92308 0.92308v1.8462c0 0.51154-0.41154 0.92308-0.92308 0.92308h-1.8462c-0.50962 0-0.92308-0.41154-0.92308-0.92308v-1.8462c0-0.50962 0.41346-0.92308 0.92308-0.92308zm15.077 0.61538c0.68077 0 1.2308 0.55116 1.2308 1.2308 0 0.68077-0.55 1.2308-1.2308 1.2308h-11.077c-0.68077 0-1.2308-0.55-1.2308-1.2308 0-0.67961 0.55-1.2308 1.2308-1.2308zm0 6.1538c0.68077 0 1.2308 0.55 1.2308 1.2308s-0.55 1.2308-1.2308 1.2308h-11.077c-0.68077 0-1.2308-0.55-1.2308-1.2308s0.55-1.2308 1.2308-1.2308zm0 6.1538c0.68077 0 1.2308 0.55 1.2308 1.2308s-0.55 1.2308-1.2308 1.2308h-11.077c-0.68077 0-1.2308-0.55-1.2308-1.2308s0.55-1.2308 1.2308-1.2308zm-17.846-5.8462c0-0.51154 0.41346-0.92307 0.92308-0.92307h1.8462c0.51154 0 0.92308 0.41153 0.92308 0.92307v1.8462c0 0.51154-0.41154 0.92307-0.92308 0.92307h-1.8462c-0.50962 0-0.92308-0.41153-0.92308-0.92307zm2.7692 5.2308c0.51154 0 0.92308 0.41154 0.92308 0.92308v1.8462c0 0.51154-0.41154 0.92308-0.92308 0.92308h-1.8462c-0.50962 0-0.92308-0.41154-0.92308-0.92308v-1.8462c0-0.51154 0.41346-0.92308 0.92308-0.92308z" fill="#fff" stroke-width=".038462"/></svg>
