<?xml version="1.0" encoding="UTF-8" standalone="no"?>
<svg
   width="512"
   height="512"
   version="1.1"
   viewBox="0 0 512 512"
   id="svg8"
   sodipodi:docname="logo_source.svg"
   inkscape:version="1.4.4 (dcaf3e7d9e, 2026-05-05)"
   xml:space="preserve"
   inkscape:export-filename="../mobile_sacn_webui/public/android-chrome-1024x1024.png"
   inkscape:export-xdpi="192"
   inkscape:export-ydpi="192"
   xmlns:inkscape="http://www.inkscape.org/namespaces/inkscape"
   xmlns:sodipodi="http://sodipodi.sourceforge.net/DTD/sodipodi-0.dtd"
   xmlns="http://www.w3.org/2000/svg"
   xmlns:svg="http://www.w3.org/2000/svg"><defs
     id="defs8"><rect
       x="95.325279"
       y="142.70899"
       width="321.34944"
       height="337.61973"
       id="rect8" /></defs><sodipodi:namedview
     id="namedview8"
     pagecolor="#ffffff"
     bordercolor="#000000"
     borderopacity="0.25"
     inkscape:showpageshadow="2"
     inkscape:pageopacity="0.0"
     inkscape:pagecheckerboard="0"
     inkscape:deskcolor="#d1d1d1"
     inkscape:zoom="0.44929096"
     inkscape:cx="420.66282"
     inkscape:cy="365.01959"
     inkscape:window-width="2259"
     inkscape:window-height="1211"
     inkscape:window-x="0"
     inkscape:window-y="0"
     inkscape:window-maximized="1"
     inkscape:current-layer="svg8" /><rect
     x="8"
     y="8"
     width="496"
     height="496"
     rx="64"
     ry="64"
     fill="#052c65"
     stroke="#052c65"
     stroke-width="16"
     id="rect1" /><g
     id="g1"><path
       d="m 404.32911,100.57178 a 9.7422624,9.7422624 0 0 0 -0.9441,-14.784139 249.88401,249.88401 0 0 0 -147.37934,-47.7873 c -55.05884,0 -105.99983,17.716857 -147.37933,47.7873 a 9.7422624,9.7422624 0 0 0 -0.96419,14.784139 10.445312,10.445312 0 0 0 13.41821,1.00436 229.99774,229.99774 0 0 1 134.92531,-43.48866 c 50.35846,0 96.96062,16.109886 134.90523,43.46857 4.11786,2.97289 9.8427,2.61133 13.41821,-0.98427"
       id="path1"
       style="fill:#ffffff;fill-opacity:1;stroke:none;stroke-width:20.0871" /><path
       style="fill:#ffffff;fill-opacity:1;stroke:none;stroke-width:20.0871"
       d="m 317.1911,187.72987 c 4.53969,-4.53969 3.71612,-12.15271 -2.00871,-15.06535 a 130.5664,130.5664 0 0 0 -59.17672,-14.14135 c -21.29236,0 -41.41968,5.10214 -59.17671,14.14135 -5.72483,2.91264 -6.5484,10.52566 -2.00871,15.06535 l 0.30131,0.30131 c 3.21394,3.21394 8.17546,3.81656 12.27324,1.80784 a 110.47926,110.47926 0 0 1 48.61087,-11.22871 c 17.43564,0 33.94727,4.03752 48.61088,11.2488 4.07769,2.00872 9.03921,1.4061 12.25316,-1.82793 z"
       id="path20" /><path
       style="fill:#ffffff;fill-opacity:1;stroke:none;stroke-width:20.0871"
       d="M 361.04132,143.87965 A 9.682001,9.682001 0 0 0 359.77584,128.91473 190.02433,190.02433 0 0 0 256.00567,98.261761 c -38.26599,0 -73.92067,11.248799 -103.77016,30.652969 a 9.6418267,9.6418267 0 0 0 -1.26548,14.96492 10.545748,10.545748 0 0 0 13.09681,1.30566 169.9372,169.9372 0 0 1 91.93883,-26.83641 169.9372,169.9372 0 0 1 91.91875,26.83641 c 4.13795,2.65151 9.64183,2.16942 13.1169,-1.30566"
       id="path2" /></g><text
     xml:space="preserve"
     style="font-style:normal;font-variant:normal;font-weight:normal;font-stretch:normal;font-size:266.667px;font-family:BPreplay;-inkscape-font-specification:'BPreplay, Normal';font-variant-ligatures:normal;font-variant-caps:normal;font-variant-numeric:normal;font-variant-east-asian:normal;letter-spacing:5px;writing-mode:lr-tb;direction:ltr;fill:#ffffff;stroke-width:0;stroke-linecap:square"
     x="60.53355"
     y="452.53363"
     id="text1"><tspan
       sodipodi:role="line"
       id="tspan1"
       x="60.53355"
       y="452.53363">1.31</tspan></text></svg>
