<?xml version="1.0" encoding="UTF-8"?><svg xmlns="http://www.w3.org/2000/svg" xml:space="preserve" width="512" height="512"><rect width="496" height="496" x="8" y="8" fill="#052c65" stroke="#052c65" stroke-width="16" rx="64" ry="64"/><path fill="#fff" d="M371.776 132.68a7.604 7.604 0 0 0-.737-11.54 195.06 195.06 0 0 0-115.035-37.3c-42.975 0-82.736 13.828-115.034 37.3a7.604 7.604 0 0 0-.752 11.54 8.15 8.15 0 0 0 10.473.783 179.52 179.52 0 0 1 105.314-33.945c39.306 0 75.68 12.575 105.297 33.93 3.215 2.32 7.683 2.037 10.473-.769m-68.013 68.03c3.543-3.544 2.9-9.486-1.569-11.759a101.94 101.94 0 0 0-46.188-11.038c-16.62 0-32.33 3.982-46.19 11.038-4.468 2.273-5.11 8.215-1.568 11.759l.236.235c2.508 2.508 6.38 2.979 9.58 1.41a86.25 86.25 0 0 1 37.94-8.764c13.61 0 26.498 3.152 37.944 8.781 3.182 1.568 7.055 1.097 9.564-1.427z"/><path fill="#fff" d="M337.988 166.482a7.557 7.557 0 0 0-.988-11.68 148.3 148.3 0 0 0-80.995-23.926c-29.868 0-57.698 8.78-80.996 23.926a7.526 7.526 0 0 0-.988 11.68 8.23 8.23 0 0 0 10.222 1.019 132.64 132.64 0 0 1 71.762-20.946A132.64 132.64 0 0 1 327.75 167.5c3.23 2.07 7.525 1.694 10.238-1.019"/><path fill="#fff" d="M124.143 382.446c0 5.204 3.33 8.95 8.534 8.95 4.995 0 8.326-3.746 8.326-8.95V251.733c0-5.828-.417-9.366-1.041-10.615-.832-2.082-3.123-4.163-6.66-4.163-.834 0-1.666.208-31.846 8.742-5.412 1.457-7.702 5.203-7.702 8.742 0 4.163 3.33 6.869 7.286 6.869.832 0 1.664-.209 2.705-.417l20.398-5.828zm50.943-1.457c0 5.828 4.578 10.408 10.406 10.408s10.407-4.58 10.407-10.408-4.578-10.407-10.407-10.407-10.406 4.58-10.406 10.407m90.906-149.238c-22.896 0-39.755 18.317-39.755 35.8 0 6.87 2.914 11.032 8.95 11.032 5.412 0 7.91-4.37 7.91-10.407 0-11.656 9.99-20.814 21.854-20.814 16.027 0 25.186 10.407 25.186 25.81 0 11.864-6.245 25.601-18.525 28.099-1.04.208-10.616.416-11.865.416q-9.366 0-9.366 7.493c0 4.788 3.122 7.493 9.575 7.702 1.249 0 10.823.208 12.072.416 16.443 2.706 24.353 16.859 24.353 30.389 0 19.565-14.779 29.555-30.18 29.555-11.657 0-21.44-6.244-27.267-19.773-1.457-3.538-4.996-5.411-7.702-5.411-3.746 0-7.077 2.913-7.077 8.325 0 4.788 1.873 9.99 5.204 14.779 6.869 9.99 20.19 18.732 37.05 18.732 29.555 0 47.039-22.48 47.039-45.791 0-15.195-7.285-30.597-23.52-40.796 10.2-8.742 17.276-18.941 17.276-34.552 0-22.48-15.818-41.004-41.212-41.004m103.394 150.695c0 5.204 3.33 8.95 8.535 8.95 4.995 0 8.325-3.746 8.325-8.95V251.733c0-5.828-.416-9.366-1.04-10.615-.833-2.082-3.123-4.163-6.66-4.163-.834 0-1.667.208-31.847 8.742-5.412 1.457-7.701 5.203-7.701 8.742 0 4.163 3.33 6.869 7.285 6.869.832 0 1.665-.209 2.706-.417l20.397-5.828z" aria-label="1.31"/></svg>