<?xml version="1.0" encoding="UTF-8"?><svg xmlns="http://www.w3.org/2000/svg" xml:space="preserve" width="512" height="512"><rect width="496" height="496" x="8" y="8" fill="#052c65" stroke="#052c65" stroke-width="16" rx="64" ry="64"/><g fill="#fff"><path d="M404.33 100.572a9.742 9.742 0 0 0-.945-14.784A249.9 249.9 0 0 0 256.005 38c-55.058 0-106 17.717-147.379 47.788a9.742 9.742 0 0 0-.964 14.784 10.445 10.445 0 0 0 13.418 1.004 230 230 0 0 1 134.926-43.489c50.358 0 96.96 16.11 134.905 43.47 4.118 2.972 9.843 2.61 13.418-.985M317.191 187.73c4.54-4.54 3.716-12.153-2.009-15.065a130.6 130.6 0 0 0-59.176-14.142c-21.293 0-41.42 5.102-59.177 14.142-5.725 2.912-6.548 10.525-2.009 15.065l.302.301c3.213 3.214 8.175 3.817 12.273 1.808a110.5 110.5 0 0 1 48.61-11.229c17.436 0 33.948 4.038 48.612 11.25 4.077 2.008 9.039 1.405 12.253-1.829z"/><path d="M361.041 143.88a9.682 9.682 0 0 0-1.265-14.965 190.02 190.02 0 0 0-103.77-30.653c-38.266 0-73.921 11.249-103.77 30.653a9.642 9.642 0 0 0-1.266 14.965 10.546 10.546 0 0 0 13.097 1.305 169.94 169.94 0 0 1 91.939-26.836 169.94 169.94 0 0 1 91.918 26.836c4.138 2.652 9.642 2.17 13.117-1.305"/></g><path fill="#fff" d="M98.934 441.067c0 6.667 4.266 11.467 10.933 11.467 6.4 0 10.667-4.8 10.667-11.467V273.6c0-7.467-.534-12-1.334-13.6-1.066-2.667-4-5.333-8.533-5.333-1.067 0-2.133.266-40.8 11.2-6.933 1.866-9.867 6.666-9.867 11.2 0 5.333 4.267 8.8 9.334 8.8 1.066 0 2.133-.267 3.466-.534l26.134-7.466zM164.2 439.2c0 7.467 5.866 13.334 13.333 13.334s13.333-5.867 13.333-13.334-5.866-13.333-13.333-13.333S164.2 431.734 164.2 439.2M280.667 248c-29.333 0-50.933 23.467-50.933 45.867 0 8.8 3.733 14.133 11.467 14.133 6.933 0 10.133-5.6 10.133-13.333 0-14.934 12.8-26.667 28-26.667 20.533 0 32.267 13.333 32.267 33.067 0 15.2-8 32.8-23.734 36-1.333.266-13.6.533-15.2.533q-12 0-12 9.6c0 6.134 4 9.6 12.267 9.867 1.6 0 13.867.267 15.467.533 21.066 3.467 31.2 21.6 31.2 38.934 0 25.066-18.934 37.866-38.667 37.866-14.933 0-27.467-8-34.933-25.333-1.867-4.533-6.4-6.933-9.867-6.933-4.8 0-9.067 3.733-9.067 10.666 0 6.134 2.4 12.8 6.667 18.934 8.8 12.8 25.867 24 47.467 24 37.866 0 60.266-28.8 60.266-58.667 0-19.467-9.333-39.2-30.133-52.267 13.067-11.2 22.133-24.267 22.133-44.267 0-28.8-20.266-52.533-52.8-52.533m132.467 193.067c0 6.667 4.267 11.467 10.934 11.467 6.4 0 10.666-4.8 10.666-11.467V273.6c0-7.467-.533-12-1.333-13.6-1.067-2.667-4-5.333-8.533-5.333-1.067 0-2.134.266-40.8 11.2-6.934 1.866-9.867 6.666-9.867 11.2 0 5.333 4.267 8.8 9.333 8.8 1.067 0 2.134-.267 3.467-.534l26.133-7.466z" aria-label="1.31"/></svg>
