<?xml version="1.0" encoding="UTF-8"?>
<svg width="138.72" height="48" version="1.1" xmlns="http://www.w3.org/2000/svg"><rect width="138.72" height="48" rx="4" fill="#052c65"/><text x="54.779999" y="31.5002" color="#ffffff" fill="#ffffff" font-family="sans-serif" font-size="20px">Control</text><path d="m42.666 34h-23.333c-1.8411 0-3.3333-1.4922-3.3333-3.3333v-13.333c0-1.8411 1.4922-3.3333 3.3333-3.3333h23.333c1.8411 0 3.3333 1.4922 3.3333 3.3333v13.333c0 1.8385-1.4948 3.3333-3.3333 3.3333zm-20-13.958v-2.0833c0-0.34375-0.28125-0.625-0.625-0.625h-2.0833c-0.34479 0-0.625 0.28125-0.625 0.625v2.0833c0 0.34375 0.28021 0.625 0.625 0.625h2.0833c0.34375 0 0.625-0.28125 0.625-0.625zm5 0v-2.0833c0-0.34375-0.28125-0.625-0.625-0.625h-2.0833c-0.34375 0-0.625 0.28125-0.625 0.625v2.0833c0 0.34375 0.28125 0.625 0.625 0.625h2.0833c0.34375 0 0.625-0.28125 0.625-0.625zm5 0v-2.0833c0-0.34375-0.28125-0.625-0.625-0.625h-2.0833c-0.34375 0-0.625 0.28125-0.625 0.625v2.0833c0 0.34375 0.28125 0.625 0.625 0.625h2.0833c0.34375 0 0.625-0.28125 0.625-0.625zm5 0v-2.0833c0-0.34375-0.28125-0.625-0.625-0.625h-2.0833c-0.34375 0-0.625 0.28125-0.625 0.625v2.0833c0 0.34375 0.28125 0.625 0.625 0.625h2.0833c0.34375 0 0.625-0.28125 0.625-0.625zm5 0v-2.0833c0-0.34375-0.28125-0.625-0.625-0.625h-2.0833c-0.34375 0-0.625 0.28125-0.625 0.625v2.0833c0 0.34375 0.28125 0.625 0.625 0.625h2.0833c0.34375 0 0.625-0.28125 0.625-0.625zm-20 5v-2.0833c0-0.34375-0.28125-0.625-0.625-0.625h-2.0833c-0.34479 0-0.625 0.28125-0.625 0.625v2.0833c0 0.34375 0.28021 0.625 0.625 0.625h2.0833c0.34375 0 0.625-0.28125 0.625-0.625zm5 0v-2.0833c0-0.34375-0.28125-0.625-0.625-0.625h-2.0833c-0.34375 0-0.625 0.28125-0.625 0.625v2.0833c0 0.34375 0.28125 0.625 0.625 0.625h2.0833c0.34375 0 0.625-0.28125 0.625-0.625zm5 0v-2.0833c0-0.34375-0.28125-0.625-0.625-0.625h-2.0833c-0.34375 0-0.625 0.28125-0.625 0.625v2.0833c0 0.34375 0.28125 0.625 0.625 0.625h2.0833c0.34375 0 0.625-0.28125 0.625-0.625zm5 0v-2.0833c0-0.34375-0.28125-0.625-0.625-0.625h-2.0833c-0.34375 0-0.625 0.28125-0.625 0.625v2.0833c0 0.34375 0.28125 0.625 0.625 0.625h2.0833c0.34375 0 0.625-0.28125 0.625-0.625zm5 0v-2.0833c0-0.34375-0.28125-0.625-0.625-0.625h-2.0833c-0.34375 0-0.625 0.28125-0.625 0.625v2.0833c0 0.34375 0.28125 0.625 0.625 0.625h2.0833c0.34375 0 0.625-0.28125 0.625-0.625zm-20 5v-2.0833c0-0.34375-0.28125-0.625-0.625-0.625h-2.0833c-0.34479 0-0.625 0.28125-0.625 0.625v2.0833c0 0.34375 0.28021 0.625 0.625 0.625h2.0833c0.34375 0 0.625-0.28125 0.625-0.625zm15 0v-2.0833c0-0.34375-0.28125-0.625-0.625-0.625h-12.083c-0.34375 0-0.625 0.28125-0.625 0.625v2.0833c0 0.34375 0.28125 0.625 0.625 0.625h12.083c0.34375 0 0.625-0.28125 0.625-0.625zm5 0v-2.0833c0-0.34375-0.28125-0.625-0.625-0.625h-2.0833c-0.34375 0-0.625 0.28125-0.625 0.625v2.0833c0 0.34375 0.28125 0.625 0.625 0.625h2.0833c0.34375 0 0.625-0.28125 0.625-0.625z" fill="#fff"/></svg>
