<?xml version="1.0" encoding="UTF-8"?>
<svg width="42" height="39" version="1.1" xmlns="http://www.w3.org/2000/svg"><rect width="42" height="39" rx="1.2811" fill="#495057" stroke-width=".496"/><path d="m27.857 11.5c1.2607 0 2.2857 1.0232 2.2857 2.2857v11.429c0 1.2607-1.025 2.2857-2.2857 2.2857h-13.714c-1.2625 0-2.2857-1.025-2.2857-2.2857v-11.429c0-1.2625 1.0232-2.2857 2.2857-2.2857zm-10.571 2.2857h-3.1429v2.2857h3.1429zm2 2.2857h3.1429v-2.2857h-3.1429zm8.5714-2.2857h-3.1429v2.2857h3.1429zm-13.714 6.8572h3.1429v-2.2857h-3.1429zm8.2857-2.2857h-3.1429v2.2857h3.1429zm2.2857 2.2857h3.1429v-2.2857h-3.1429zm-7.4286 2.2857h-3.1429v2.2857h3.1429zm2 2.2857h3.1429v-2.2857h-3.1429zm8.5714-2.2857h-3.1429v2.2857h3.1429z" fill="#fff" stroke-width=".035714"/></svg>
