<?xml version="1.0" encoding="UTF-8"?>
<svg width="42" height="39" version="1.1" xmlns="http://www.w3.org/2000/svg"><rect width="42" height="39" rx="1.2811" fill="#495057" stroke-width=".496"/><path d="m30.333 27.5h-18.667c-1.4729 0-2.6667-1.1938-2.6667-2.6667v-10.667c0-1.4729 1.1938-2.6667 2.6667-2.6667h18.667c1.4729 0 2.6667 1.1938 2.6667 2.6667v10.667c0 1.4708-1.1958 2.6667-2.6667 2.6667zm-16-11.167v-1.6667c0-0.275-0.225-0.5-0.5-0.5h-1.6667c-0.27584 0-0.5 0.225-0.5 0.5v1.6667c0 0.275 0.22416 0.5 0.5 0.5h1.6667c0.275 0 0.5-0.225 0.5-0.5zm4 0v-1.6667c0-0.275-0.225-0.5-0.5-0.5h-1.6667c-0.275 0-0.5 0.225-0.5 0.5v1.6667c0 0.275 0.225 0.5 0.5 0.5h1.6667c0.275 0 0.5-0.225 0.5-0.5zm4 0v-1.6667c0-0.275-0.225-0.5-0.5-0.5h-1.6667c-0.275 0-0.5 0.225-0.5 0.5v1.6667c0 0.275 0.225 0.5 0.5 0.5h1.6667c0.275 0 0.5-0.225 0.5-0.5zm4 0v-1.6667c0-0.275-0.225-0.5-0.5-0.5h-1.6667c-0.275 0-0.5 0.225-0.5 0.5v1.6667c0 0.275 0.225 0.5 0.5 0.5h1.6667c0.275 0 0.5-0.225 0.5-0.5zm4 0v-1.6667c0-0.275-0.225-0.5-0.5-0.5h-1.6667c-0.275 0-0.5 0.225-0.5 0.5v1.6667c0 0.275 0.225 0.5 0.5 0.5h1.6667c0.275 0 0.5-0.225 0.5-0.5zm-16 4v-1.6667c0-0.275-0.225-0.5-0.5-0.5h-1.6667c-0.27584 0-0.5 0.225-0.5 0.5v1.6667c0 0.275 0.22416 0.5 0.5 0.5h1.6667c0.275 0 0.5-0.225 0.5-0.5zm4 0v-1.6667c0-0.275-0.225-0.5-0.5-0.5h-1.6667c-0.275 0-0.5 0.225-0.5 0.5v1.6667c0 0.275 0.225 0.5 0.5 0.5h1.6667c0.275 0 0.5-0.225 0.5-0.5zm4 0v-1.6667c0-0.275-0.225-0.5-0.5-0.5h-1.6667c-0.275 0-0.5 0.225-0.5 0.5v1.6667c0 0.275 0.225 0.5 0.5 0.5h1.6667c0.275 0 0.5-0.225 0.5-0.5zm4 0v-1.6667c0-0.275-0.225-0.5-0.5-0.5h-1.6667c-0.275 0-0.5 0.225-0.5 0.5v1.6667c0 0.275 0.225 0.5 0.5 0.5h1.6667c0.275 0 0.5-0.225 0.5-0.5zm4 0v-1.6667c0-0.275-0.225-0.5-0.5-0.5h-1.6667c-0.275 0-0.5 0.225-0.5 0.5v1.6667c0 0.275 0.225 0.5 0.5 0.5h1.6667c0.275 0 0.5-0.225 0.5-0.5zm-16 4v-1.6667c0-0.275-0.225-0.5-0.5-0.5h-1.6667c-0.27584 0-0.5 0.225-0.5 0.5v1.6667c0 0.275 0.22416 0.5 0.5 0.5h1.6667c0.275 0 0.5-0.225 0.5-0.5zm12 0v-1.6667c0-0.275-0.225-0.5-0.5-0.5h-9.6667c-0.275 0-0.5 0.225-0.5 0.5v1.6667c0 0.275 0.225 0.5 0.5 0.5h9.6667c0.275 0 0.5-0.225 0.5-0.5zm4 0v-1.6667c0-0.275-0.225-0.5-0.5-0.5h-1.6667c-0.275 0-0.5 0.225-0.5 0.5v1.6667c0 0.275 0.225 0.5 0.5 0.5h1.6667c0.275 0 0.5-0.225 0.5-0.5z" fill="#fff" stroke-width=".041667"/></svg>
