<?xml version="1.0" encoding="UTF-8"?>
<svg version="1.1" viewBox="0 0 512 512" xmlns="http://www.w3.org/2000/svg"><path d="m88 48c13.3 0 24 10.75 24 24v48c0 13.3-10.7 24-24 24h-48c-13.25 0-24-10.7-24-24v-48c0-13.25 10.75-24 24-24h48zm392 16c17.7 0 32 14.33 32 32 0 17.7-14.3 32-32 32h-288c-17.7 0-32-14.3-32-32 0-17.67 14.3-32 32-32h288zm0 160c17.7 0 32 14.3 32 32s-14.3 32-32 32h-288c-17.7 0-32-14.3-32-32s14.3-32 32-32h288zm0 160c17.7 0 32 14.3 32 32s-14.3 32-32 32h-288c-17.7 0-32-14.3-32-32s14.3-32 32-32h288zm-464-152c0-13.3 10.75-24 24-24h48c13.3 0 24 10.7 24 24v48c0 13.3-10.7 24-24 24h-48c-13.25 0-24-10.7-24-24v-48zm72 136c13.3 0 24 10.7 24 24v48c0 13.3-10.7 24-24 24h-48c-13.25 0-24-10.7-24-24v-48c0-13.3 10.75-24 24-24h48z" fill="#e9ecef"/></svg>
