<?xml version="1.0" encoding="UTF-8"?>
<svg version="1.1" viewBox="0 0 512 512" xmlns="http://www.w3.org/2000/svg"><path d="m0 416c0-17.7 14.33-32 32-32h54.66c12.34-28.3 40.54-48 73.34-48s60.1 19.7 73.3 48h246.7c17.7 0 32 14.3 32 32s-14.3 32-32 32h-246.7c-13.2 28.3-40.5 48-73.3 48s-61-19.7-73.34-48h-54.66c-17.67 0-32-14.3-32-32zm192 0c0-17.7-14.3-32-32-32s-32 14.3-32 32 14.3 32 32 32 32-14.3 32-32zm160-240c32.8 0 60.1 19.7 73.3 48h54.7c17.7 0 32 14.3 32 32s-14.3 32-32 32h-54.7c-13.2 28.3-40.5 48-73.3 48s-61-19.7-73.3-48h-246.7c-17.67 0-32-14.3-32-32s14.33-32 32-32h246.7c12.3-28.3 40.5-48 73.3-48zm32 80c0-17.7-14.3-32-32-32s-32 14.3-32 32 14.3 32 32 32 32-14.3 32-32zm96-192c17.7 0 32 14.33 32 32 0 17.7-14.3 32-32 32h-214.7c-13.2 28.3-40.5 48-73.3 48s-61-19.7-73.3-48h-86.7c-17.67 0-32-14.3-32-32 0-17.67 14.33-32 32-32h86.7c12.3-28.25 40.5-48 73.3-48s60.1 19.75 73.3 48h214.7zm-320 32c0 17.7 14.3 32 32 32s32-14.3 32-32c0-17.67-14.3-32-32-32s-32 14.33-32 32z" fill="#e9ecef"/></svg>
