<?xml version="1.0" encoding="UTF-8"?>
<svg width="171.45" height="48" version="1.1" xmlns="http://www.w3.org/2000/svg"><rect width="171.45" height="48" rx="5.2295" fill="#052c65" stroke-width="1.1117"/><text x="49.846001" y="31.5" color="#ffffff" fill="#ffffff" font-family="sans-serif" font-size="20px">View Levels</text><path d="m19.462 14c0.63942 0 1.1538 0.51683 1.1538 1.1538v2.3077c0 0.63942-0.51442 1.1538-1.1538 1.1538h-2.3077c-0.63702 0-1.1538-0.51442-1.1538-1.1538v-2.3077c0-0.63702 0.51683-1.1538 1.1538-1.1538zm18.846 0.76923c0.85096 0 1.5385 0.68894 1.5385 1.5385 0 0.85096-0.6875 1.5385-1.5385 1.5385h-13.846c-0.85096 0-1.5385-0.6875-1.5385-1.5385 0-0.84952 0.6875-1.5385 1.5385-1.5385zm0 7.6923c0.85096 0 1.5385 0.6875 1.5385 1.5385s-0.6875 1.5385-1.5385 1.5385h-13.846c-0.85096 0-1.5385-0.6875-1.5385-1.5385s0.6875-1.5385 1.5385-1.5385zm0 7.6923c0.85096 0 1.5385 0.6875 1.5385 1.5385s-0.6875 1.5385-1.5385 1.5385h-13.846c-0.85096 0-1.5385-0.6875-1.5385-1.5385s0.6875-1.5385 1.5385-1.5385zm-22.308-7.3077c0-0.63942 0.51683-1.1538 1.1538-1.1538h2.3077c0.63942 0 1.1538 0.51442 1.1538 1.1538v2.3077c0 0.63942-0.51442 1.1538-1.1538 1.1538h-2.3077c-0.63702 0-1.1538-0.51442-1.1538-1.1538zm3.4615 6.5385c0.63942 0 1.1538 0.51442 1.1538 1.1538v2.3077c0 0.63943-0.51442 1.1538-1.1538 1.1538h-2.3077c-0.63702 0-1.1538-0.51442-1.1538-1.1538v-2.3077c0-0.63942 0.51683-1.1538 1.1538-1.1538z" fill="#fff" stroke-width=".048077"/></svg>
