<?xml version="1.0" standalone="no"?>
<!DOCTYPE svg PUBLIC "-//W3C//DTD SVG 20010904//EN"
 "http://www.w3.org/TR/2001/REC-SVG-20010904/DTD/svg10.dtd">
<svg version="1.0" xmlns="http://www.w3.org/2000/svg"
 width="700.000000pt" height="700.000000pt" viewBox="0 0 700.000000 700.000000"
 preserveAspectRatio="xMidYMid meet">
<metadata>
Created by potrace 1.14, written by Peter Selinger 2001-2017
</metadata>
<g transform="translate(0.000000,700.000000) scale(0.100000,-0.100000)"
fill="#000000" stroke="none">
<path d="M3319 6596 c-2 -2 -31 -6 -64 -10 -33 -3 -87 -11 -120 -17 -33 -5
-69 -12 -80 -14 -67 -11 -238 -60 -328 -94 -199 -74 -345 -152 -522 -277 -104
-73 -100 -68 -77 -95 11 -13 57 -70 102 -127 l82 -103 26 17 c15 9 43 29 62
44 207 159 542 291 845 334 116 16 371 19 471 5 38 -5 87 -12 109 -15 103 -15
316 -79 435 -131 125 -55 282 -146 380 -220 l45 -34 25 28 c14 16 39 46 55 67
17 21 52 66 78 99 l49 61 -24 18 c-270 211 -666 387 -973 432 -22 3 -51 8 -65
11 -70 14 -121 17 -306 20 -111 2 -203 3 -205 1z"/>
<path d="M3329 5726 c-2 -2 -33 -7 -69 -10 -97 -10 -124 -15 -245 -41 -125
-28 -305 -84 -305 -96 0 -4 26 -74 57 -154 44 -115 60 -145 72 -141 71 24 256
76 292 81 24 4 46 8 49 10 3 2 34 6 70 10 36 4 79 9 95 11 42 5 262 4 310 -1
119 -12 160 -19 264 -42 62 -14 145 -36 184 -49 39 -13 71 -24 73 -24 4 0 116
301 113 304 -10 9 -165 57 -254 79 -88 22 -136 32 -275 53 -41 7 -425 15 -431
10z"/>
<path d="M3377 4824 c-1 -1 -38 -5 -82 -9 -44 -4 -87 -8 -95 -10 -8 -1 -37 -5
-65 -9 -81 -13 -273 -62 -370 -96 -133 -47 -355 -158 -480 -241 -60 -40 -112
-76 -115 -79 -3 -3 -32 -27 -65 -54 -33 -27 -110 -99 -171 -161 -178 -180
-292 -340 -405 -570 -59 -120 -149 -361 -163 -436 -4 -26 -19 -101 -21 -109
-3 -10 -15 -76 -20 -105 -24 -143 -24 -544 -1 -617 3 -7 7 -31 10 -53 34 -242
136 -525 274 -761 122 -208 341 -459 527 -605 512 -401 1162 -558 1795 -433
578 115 1088 463 1420 969 146 224 277 565 316 822 3 21 7 49 10 63 24 145 24
474 -1 615 -6 30 -32 169 -41 214 -3 13 -24 83 -48 155 -237 721 -836 1275
-1569 1450 -56 14 -120 27 -142 30 -23 4 -50 8 -60 10 -70 13 -427 30 -438 20z
m293 -268 c100 -9 120 -12 155 -19 17 -4 44 -9 60 -12 130 -21 340 -94 490
-170 590 -300 985 -878 1051 -1540 14 -142 6 -378 -17 -498 -5 -29 -12 -65
-15 -82 -23 -136 -107 -368 -186 -515 -387 -718 -1178 -1120 -1978 -1006 -330
48 -635 175 -900 376 -117 88 -294 266 -379 380 -156 210 -274 461 -331 705
-20 85 -24 103 -39 205 -36 249 -5 600 74 835 73 219 170 406 304 585 76 102
268 294 366 366 44 32 82 62 83 67 2 4 8 7 14 7 5 0 29 14 54 31 144 99 470
228 644 255 19 3 53 9 75 14 22 5 76 12 120 15 44 4 81 7 82 9 4 4 203 -1 273
-8z"/>
<path d="M2255 2851 c-136 -33 -213 -181 -160 -307 65 -155 276 -188 383 -59
114 139 30 348 -148 368 -25 3 -58 2 -75 -2z"/>
<path d="M4627 2845 c-51 -17 -81 -39 -110 -77 -113 -153 -11 -360 178 -361
196 -2 298 220 170 371 -54 65 -159 94 -238 67z"/>
<path d="M2577 1996 c-164 -59 -200 -290 -60 -390 129 -91 294 -43 349 102 19
49 15 132 -9 179 -52 100 -173 147 -280 109z"/>
<path d="M4267 1996 c-152 -55 -196 -256 -81 -371 109 -109 297 -78 361 62 85
186 -88 377 -280 309z"/>
<path d="M3425 1648 c-119 -42 -183 -185 -133 -300 37 -85 116 -138 208 -138
129 0 223 95 223 225 1 155 -151 264 -298 213z"/>
</g>
</svg>
